<svg version="1" xmlns="http://www.w3.org/2000/svg" width="682.667" height="682.667" viewBox="0 0 512.000000 512.000000"><path d="M0 .7C0 1.2 7.9 11.6 17.6 24c9.7 12.4 18.7 23.8 20 25.5 1.3 1.6 5.3 6.8 8.9 11.3l6.5 8.4V418.9l-4.6 7.8c-2.6 4.3-5.6 9.4-6.6 11.3-1.1 1.9-11 18.9-21.9 37.8C8.9 494.6 0 510.5 0 511c0 .7 63.2 1 181.8 1l181.7-.1 35.5-45.6c19.5-25.1 38-48.8 41.2-52.7l5.6-7.1-13.1-.5c-7.3-.3-12.7-.7-12.1-.8 1.9-.4 20.6-16.3 28.2-24.1 23.1-23.7 39.4-49.6 50.2-80.1 4.3-11.8 6.6-20.2 8.5-30 .3-1.4.7-3.5.9-4.8 3.8-18.5 4.3-51.8 1.2-72.2-1.3-8.2-1.9-11.1-4.6-21.5-8.9-34-24.4-63.6-47-89.5-20.1-23.1-41.8-39.9-68.5-53C356 13.6 326.7 7 289 7.5c-11.3.2-21.4.5-22.5.8-1.1.3-4.2.8-7 1.1-17.9 2.4-43.1 10-61.1 18.5-5.8 2.8-10.8 5.1-11 5.1-.2 0-.4-7.4-.4-16.5V0H93.5C42.1 0 0 .3 0 .7z"/></svg>