<?xml version="1.0" standalone="no"?>
<!DOCTYPE svg PUBLIC "-//W3C//DTD SVG 20010904//EN"
 "http://www.w3.org/TR/2001/REC-SVG-20010904/DTD/svg10.dtd">
<svg version="1.0" xmlns="http://www.w3.org/2000/svg"
 width="260.000000pt" height="260.000000pt" viewBox="0 0 260.000000 260.000000"
 preserveAspectRatio="xMidYMid meet">
<metadata>
Created by potrace 1.11, written by Peter Selinger 2001-2013
</metadata>
<g transform="translate(0.000000,260.000000) scale(0.100000,-0.100000)"
fill="#000000" stroke="none">
<path d="M26 2543 c16 -21 77 -100 136 -176 l108 -138 0 -865 c0 -784 -2 -868
-16 -897 -10 -18 -70 -124 -135 -236 -66 -112 -119 -205 -119 -207 0 -2 408
-4 908 -4 l907 0 200 256 c110 141 202 260 203 265 2 5 -22 9 -54 9 l-57 0 64
49 c351 265 507 742 383 1168 -192 663 -936 985 -1554 673 -33 -17 -62 -30
-65 -30 -3 0 -5 38 -5 85 l0 85 -466 0 -466 0 28 -37z m1729 -61 c200 -57 330
-130 473 -267 166 -158 273 -365 307 -594 19 -121 19 -191 0 -312 -43 -288
-216 -561 -455 -717 l-65 -42 -145 0 -145 1 72 23 c142 46 299 148 398 258
364 404 313 1031 -110 1368 -316 250 -781 270 -1107 46 l-38 -25 0 63 c0 40 5
68 13 74 41 34 201 101 302 126 94 23 111 24 275 21 116 -3 173 -9 225 -23z
m-933 -1024 l3 -1013 591 -5 591 -5 -116 -152 -116 -152 -794 0 c-652 -1 -792
1 -788 12 3 7 46 79 96 160 l91 147 0 905 0 905 -73 93 c-40 50 -77 98 -81
105 -6 9 56 12 293 12 l301 0 2 -1012z m611 502 c10 -17 27 -30 38 -30 12 0
19 -7 19 -20 0 -26 -25 -36 -48 -19 -13 11 -13 9 2 -9 18 -21 20 -21 37 -6 10
9 21 25 24 35 4 11 11 17 16 14 17 -11 9 -47 -16 -67 -14 -11 -25 -29 -24 -41
0 -19 2 -18 11 6 13 35 43 33 43 -3 0 -17 -7 -26 -24 -30 -21 -5 -22 -7 -7
-19 9 -7 16 -9 16 -3 0 5 7 12 15 16 26 9 16 -14 -10 -26 -14 -6 -25 -17 -25
-25 0 -18 -17 -16 -28 3 -8 14 -12 11 -32 -16 -12 -17 -28 -29 -36 -26 -7 3
-22 -7 -32 -21 -18 -25 -21 -26 -51 -14 -25 11 -34 11 -46 1 -12 -10 -15 -10
-15 3 0 9 9 18 19 22 39 12 45 105 6 105 -8 0 -15 7 -15 15 0 9 9 15 25 15 42
0 76 45 73 97 -1 33 3 47 18 58 26 20 27 19 47 -15z m-313 5 c73 -16 130 -19
130 -7 0 5 7 9 15 9 17 0 17 0 9 -21 -3 -9 -14 -16 -23 -16 -9 0 -35 -11 -58
-24 -23 -13 -40 -19 -37 -12 2 6 -5 12 -17 13 -12 1 -29 8 -38 16 -9 8 -34 24
-56 35 -35 19 -37 21 -15 21 14 0 54 -6 90 -14z m576 -50 c18 -44 18 -98 -1
-163 -19 -64 -34 -67 -32 -8 1 24 -1 42 -4 40 -14 -8 -32 29 -36 75 -3 44 -1
51 23 70 15 12 29 21 31 21 2 0 11 -16 19 -35z m-357 16 c22 -14 16 -62 -9
-83 -33 -26 -54 -19 -58 19 -2 22 3 38 17 52 23 23 30 25 50 12z m258 -28
c-17 -18 -22 -8 -11 22 5 12 10 13 17 6 8 -8 6 -16 -6 -28z m-477 -42 c0 -5
-3 -11 -7 -13 -5 -1 -21 -18 -36 -37 l-28 -34 32 -29 c39 -36 59 -33 84 15 11
20 26 37 33 37 15 0 12 -31 -3 -32 -14 -1 -32 -48 -29 -78 2 -32 10 -56 35
-103 11 -21 18 -41 16 -44 -10 -9 -87 118 -87 143 0 13 -6 24 -13 24 -8 0 -24
11 -37 25 -17 18 -38 26 -81 31 l-59 7 0 48 0 49 90 0 c50 0 90 -4 90 -9z
m175 -102 c12 -19 -4 -61 -23 -57 -30 6 -28 68 2 68 8 0 18 -5 21 -11z m245
-29 c0 -5 -7 -10 -16 -10 -8 0 -12 5 -9 10 3 6 10 10 16 10 5 0 9 -4 9 -10z
m-340 -14 c0 -8 -4 -18 -10 -21 -5 -3 -10 3 -10 14 0 12 5 21 10 21 6 0 10 -6
10 -14z m280 -19 c0 -24 -31 -132 -41 -141 -21 -22 -13 112 9 137 18 20 32 22
32 4z m50 -35 c-1 -15 -7 -38 -15 -52 l-14 -25 -1 25 c0 20 -2 22 -10 10 -7
-12 -10 -8 -10 14 0 31 26 69 41 60 5 -3 9 -17 9 -32z m-120 -70 c-1 -70 -2
-75 -14 -53 -13 24 -14 24 -21 -17 l-7 -41 -31 36 c-17 19 -33 43 -35 52 -9
39 -14 81 -9 81 22 0 59 -24 68 -42 l10 -23 -5 24 c-5 26 21 74 35 65 5 -3 9
-40 9 -82z m435 78 c3 -5 -1 -10 -10 -10 -9 0 -13 5 -10 10 3 6 8 10 10 10 2
0 7 -4 10 -10z m-860 -100 c8 -24 7 -24 -16 -8 -19 12 -25 25 -26 64 l-3 49
19 -40 c10 -22 22 -51 26 -65z m255 79 c0 -5 -4 -9 -10 -9 -5 0 -10 7 -10 16
0 8 5 12 10 9 6 -3 10 -10 10 -16z m570 13 c0 -4 -7 -18 -16 -30 -8 -12 -22
-35 -30 -50 -14 -27 -14 -26 -14 24 0 28 2 53 4 55 8 8 56 9 56 1z m77 -54
c12 -24 9 -58 -6 -58 -6 0 -41 73 -41 86 0 16 37 -5 47 -28z m-37 -29 c30 -58
20 -68 -25 -27 -34 31 -37 38 -26 52 20 24 29 20 51 -25z m67 4 c-3 -10 -5 -4
-5 12 0 17 2 24 5 18 2 -7 2 -21 0 -30z m-657 -13 c24 -47 24 -51 5 -43 -19 7
-48 60 -40 73 10 16 13 12 35 -30z m-160 4 c30 -14 72 -42 93 -62 41 -40 49
-67 17 -57 -11 4 -42 0 -68 -8 -26 -9 -82 -17 -124 -20 -71 -4 -78 -2 -78 14
0 11 9 21 23 23 12 3 31 7 42 9 15 4 13 5 -7 6 -43 2 -58 12 -58 37 0 29 1 29
50 4 22 -11 52 -20 67 -20 l27 0 -37 38 c-64 65 -42 80 53 36z m479 -49 c-1
-35 -2 -37 -9 -15 -4 14 -8 39 -9 55 0 23 2 26 9 15 5 -8 9 -33 9 -55z m251 5
c8 -15 8 -20 -2 -20 -21 1 -48 26 -48 44 0 14 4 15 20 6 11 -6 24 -19 30 -30z
m-243 -72 c-3 -8 -6 -5 -6 6 -1 11 2 17 5 13 3 -3 4 -12 1 -19z m-447 -65 c0
-5 -15 -15 -33 -24 -17 -9 -31 -23 -31 -32 1 -14 -2 -14 -35 1 -20 9 -38 18
-40 19 -2 2 6 12 19 23 16 14 37 20 72 20 26 0 48 -3 48 -7z m920 -77 c0 -12
-5 -7 -19 24 -11 24 -11 24 3 6 9 -11 16 -24 16 -30z m-1075 14 c4 -6 -3 -25
-14 -43 l-21 -32 0 36 c0 45 18 66 35 39z m754 -47 c44 -54 83 -140 79 -177
l-4 -31 -11 35 c-9 30 -10 25 -6 -40 2 -41 6 -83 8 -92 2 -10 0 -18 -4 -18
-15 0 -31 25 -32 50 -2 23 -2 23 -6 3 -5 -27 -9 -28 -28 -9 -9 9 -16 48 -19
112 -3 55 -10 123 -14 152 -5 28 -5 52 -1 52 4 0 21 -17 38 -37z m-386 -128
c2 -64 0 -73 -28 -107 -29 -37 -55 -49 -55 -27 0 5 -5 7 -11 4 -7 -5 -5 -13 7
-26 11 -12 14 -24 8 -36 -7 -15 -8 -14 -11 9 -3 14 -11 32 -20 40 -14 11 -15
10 -9 -8 5 -15 2 -24 -10 -28 -13 -5 -15 -9 -6 -18 20 -20 14 -38 -12 -38 -20
0 -23 -4 -19 -22 4 -20 0 -18 -26 11 -21 24 -35 56 -47 105 -16 69 -16 72 6
129 23 62 34 66 44 16 6 -30 7 -31 43 -24 21 4 44 11 50 17 9 7 23 7 44 -1 18
-6 34 -11 37 -11 2 0 2 39 -1 88 -5 72 -4 79 4 42 5 -25 11 -76 12 -115z m593
77 c9 -30 14 -56 11 -58 -9 -9 -37 58 -43 100 -7 54 10 31 32 -42z m-264 -9
c10 -26 16 -48 14 -50 -4 -4 -31 52 -41 87 -12 40 8 13 27 -37z m-728 12 c3
-8 1 -15 -4 -15 -6 0 -10 7 -10 15 0 8 2 15 4 15 2 0 6 -7 10 -15z m641 -35
c-3 -5 -11 -10 -16 -10 -6 0 -7 5 -4 10 3 6 11 10 16 10 6 0 7 -4 4 -10z
m-644 -33 c-8 -8 -11 -7 -11 4 0 20 13 34 18 19 3 -7 -1 -17 -7 -23z m659 -7
c20 -20 20 -20 -10 -35 -16 -8 -39 -15 -51 -15 -20 0 -21 2 -7 18 8 9 18 25
21 35 8 22 22 22 47 -3z m-627 -88 c-6 -2 -14 -13 -16 -25 -3 -14 -5 -8 -6 14
0 20 5 51 11 70 l13 34 5 -45 c3 -30 1 -46 -7 -48z m687 21 c0 -15 -10 -18
-70 -19 -80 0 -72 13 14 26 28 4 52 8 54 9 1 0 2 -7 2 -16z m-580 -72 c0 -40
0 -40 -57 -56 -32 -9 -66 -18 -75 -21 -12 -4 -18 0 -18 10 0 9 8 15 18 14 40
-3 63 3 69 20 5 15 52 72 60 72 2 0 3 -18 3 -39z m10 -72 c0 -5 -4 -9 -10 -9
-5 0 -10 7 -10 16 0 8 5 12 10 9 6 -3 10 -10 10 -16z m374 12 c17 -27 -63
-141 -100 -141 -7 0 -20 -7 -28 -16 -14 -14 -15 -12 -10 18 8 43 48 113 76
133 25 17 54 20 62 6z m-232 -73 c-8 -8 -9 -4 -5 13 4 13 8 18 11 10 2 -7 -1
-18 -6 -23z m38 8 c0 -2 -8 -10 -17 -17 -16 -13 -17 -12 -4 4 13 16 21 21 21
13z m-83 -94 c12 -7 37 -12 55 -13 l33 -1 -30 -10 c-16 -5 -48 -18 -70 -28
-117 -52 -120 -53 -153 -36 -17 9 -33 20 -36 25 -6 8 126 61 153 61 9 0 11 7
8 23 -5 19 -4 20 6 6 7 -9 22 -21 34 -27z m173 -5 c0 -2 -12 -14 -27 -28 -24
-22 -23 -11 2 18 9 11 25 17 25 10z m-71 -60 c-9 -7 -19 -21 -22 -32 -4 -18
-5 -18 -6 2 0 12 7 27 17 32 24 14 30 13 11 -2z m-224 -110 c33 -16 92 -41
130 -53 l70 -23 -145 -1 c-183 0 -190 3 -190 95 l0 64 38 -25 c20 -14 64 -40
97 -57z"/>
</g>
</svg>
